# xmcd CD database file
#
# Track frame offsets:
#	150
#	17640
#	35672
#	51370
#
# Disc length: 997 seconds
#
# Revision: 0
# Processed by: cddbd v1.5.1PL0 Copyright (c) Steve Scherf et al.
# Submitted via: CDex 1.51
#
DISCID=2e03e304
DTITLE=メトロノーム - 妄想トリック
DYEAR=2004
DGENRE=Rock
TTITLE0=妄想トリック
TTITLE1=我思う末に、我有り
TTITLE2=光り輝く世界
TTITLE3=RE-SET
EXTD=YEAR: 2004.2.1
EXTT0=
EXTT1=
EXTT2=
EXTT3=
PLAYORDER=
